<svg xmlns="http://www.w3.org/2000/svg" xmlns:xlink="http://www.w3.org/1999/xlink" viewBox="0,0,256,256" width="24px" height="24px" fill-rule="nonzero"><g fill="#ffffff" fill-rule="nonzero" stroke="none" stroke-width="1" stroke-linecap="butt" stroke-linejoin="miter" stroke-miterlimit="10" stroke-dasharray="" stroke-dashoffset="0" font-family="none" font-weight="none" font-size="none" text-anchor="none" style="mix-blend-mode: normal"><g transform="scale(10.66667,10.66667)"><path d="M12,4c0,0 -6.25445,-0.00003 -7.81445,0.41797c-0.861,0.23 -1.53758,0.90758 -1.76758,1.76758c-0.418,1.56 -0.41797,5.81445 -0.41797,5.81445c0,0 -0.00003,4.25445 0.41797,5.81445c0.23,0.861 0.90758,1.53758 1.76758,1.76758c1.56,0.418 7.81445,0.41797 7.81445,0.41797c0,0 6.25445,0.00003 7.81445,-0.41797c0.86,-0.23 1.53758,-0.90758 1.76758,-1.76758c0.418,-1.56 0.41797,-5.81445 0.41797,-5.81445c0,0 0.00003,-4.25445 -0.41797,-5.81445c-0.23,-0.86 -0.90758,-1.53758 -1.76758,-1.76758c-1.56,-0.418 -7.81445,-0.41797 -7.81445,-0.41797zM12,6c2.882,0 6.49087,0.13361 7.29688,0.34961c0.169,0.045 0.30752,0.18352 0.35352,0.35352c0.241,0.898 0.34961,3.63888 0.34961,5.29688c0,1.658 -0.10861,4.39787 -0.34961,5.29688c-0.045,0.169 -0.18352,0.30752 -0.35352,0.35352c-0.805,0.216 -4.41488,0.34961 -7.29687,0.34961c-2.881,0 -6.48987,-0.13361 -7.29687,-0.34961c-0.169,-0.045 -0.30752,-0.18352 -0.35352,-0.35352c-0.241,-0.898 -0.34961,-3.63888 -0.34961,-5.29687c0,-1.658 0.10861,-4.39883 0.34961,-5.29883c0.045,-0.168 0.18352,-0.30656 0.35352,-0.35156c0.805,-0.216 4.41488,-0.34961 7.29688,-0.34961zM10,8.53516v6.92969l6,-3.46484z"></path></g></g></svg>